<?xml version="1.0" encoding="UTF-8" standalone="no"?>
<svg
   xmlns:dc="http://purl.org/dc/elements/1.1/"
   xmlns:cc="http://creativecommons.org/ns#"
   xmlns:rdf="http://www.w3.org/1999/02/22-rdf-syntax-ns#"
   xmlns:svg="http://www.w3.org/2000/svg"
   xmlns="http://www.w3.org/2000/svg"
   viewBox="0 0 543.22668 124.32"
   height="124.32"
   width="543.22668"
   xml:space="preserve"
   id="svg2"
   version="1.1"><metadata
     id="metadata8"><rdf:RDF><cc:Work
         rdf:about=""><dc:format>image/svg+xml</dc:format><dc:type
           rdf:resource="http://purl.org/dc/dcmitype/StillImage" /></cc:Work></rdf:RDF></metadata><defs
     id="defs6" /><g
     transform="matrix(1.3333333,0,0,-1.3333333,0,124.32)"
     id="g10"><g
       transform="scale(0.1)"
       id="g12"><path
         id="path14"
         style="fill:#e22224;fill-opacity:1;fill-rule:nonzero;stroke:none"
         d="m 1166.34,576.668 h -35.49 c -4.34,0 -7.37,-2.941 -7.37,-7.141 V 403.348 l -3.32,-3.157 h -51.55 l -3.32,3.157 v 166.179 c 0,4.129 -3.1,7.141 -7.37,7.141 h -35.5 c -4.28,0 -7.38,-3.012 -7.38,-7.141 V 392.113 c 0,-2.832 1.23,-5.625 3.37,-7.664 l 26.14,-24.902 c 2.26,-2.156 4.77,-3.172 7.88,-3.172 h 83.91 c 2.88,0 5.74,1.148 7.88,3.172 l 26.15,24.902 c 2.13,2.031 3.35,4.824 3.35,7.664 v 177.414 c 0,4.129 -3.1,7.141 -7.38,7.141" /><path
         id="path16"
         style="fill:#e22224;fill-opacity:1;fill-rule:nonzero;stroke:none"
         d="m 1393.76,470.152 -93.82,32.618 v 26.921 l 3.32,3.157 h 44.43 l 16.37,-15.594 c 3.23,-3.066 7.38,-3.066 10.59,0 l 22.59,21.519 c 2.06,1.957 2.5,3.918 2.5,5.227 0,1.309 -0.44,3.273 -2.49,5.215 l -25.49,24.297 c -2.1,2.004 -4.98,3.156 -7.89,3.156 h -76.79 c -2.91,0 -5.78,-1.152 -7.89,-3.156 l -26.13,-24.91 c -2.31,-2.192 -3.38,-4.641 -3.38,-7.688 v -61.785 c 0,-3.586 2.03,-6.359 5.58,-7.617 l 93.83,-32.617 v -35.547 l -3.33,-3.157 h -48.96 l -16.36,15.586 c -3.27,3.125 -7.33,3.125 -10.61,0 l -22.6,-21.511 c -2.05,-1.965 -2.47,-3.926 -2.47,-5.239 0,-1.289 0.44,-3.25 2.48,-5.191 l 25.49,-24.289 c 2.27,-2.156 4.77,-3.172 7.89,-3.172 h 81.33 c 2.89,0 5.76,1.16 7.86,3.172 l 26.14,24.891 c 2.15,2.035 3.38,4.835 3.38,7.675 v 70.41 c 0,3.579 -2.02,6.352 -5.57,7.629" /><path
         id="path18"
         style="fill:#193051;fill-opacity:1;fill-rule:nonzero;stroke:none"
         d="m 1637.58,535.387 h 46.48 l 17.11,-16.293 c 2.25,-2.149 4.84,-2.149 7.09,0 l 22.59,21.523 c 2.26,2.153 2.26,4.613 0,6.766 l -25.49,24.293 c -1.62,1.535 -3.88,2.445 -6.13,2.445 h -76.81 c -2.26,0 -4.51,-0.91 -6.14,-2.445 l -26.13,-24.91 c -1.93,-1.848 -2.58,-3.684 -2.58,-5.848 v -61.797 c 0,-2.445 1.3,-4.297 3.87,-5.215 l 95.52,-33.203 v -38.437 l -4.84,-4.614 h -50.98 l -17.11,16.293 c -2.25,2.164 -4.84,2.164 -7.1,0 l -22.59,-21.507 c -2.25,-2.168 -2.25,-4.614 0,-6.766 l 25.49,-24.289 c 1.95,-1.852 3.89,-2.465 6.14,-2.465 h 81.32 c 2.26,0 4.53,0.934 6.13,2.465 l 26.15,24.906 c 1.6,1.535 2.58,3.684 2.58,5.832 v 70.41 c 0,2.465 -1.3,4.297 -3.88,5.231 l -95.53,33.203 v 29.82 l 4.84,4.602" /><path
         id="path20"
         style="fill:#193051;fill-opacity:1;fill-rule:nonzero;stroke:none"
         d="m 1912.57,460.379 -4.84,-4.617 h -53.89 v 79.625 h 53.89 l 4.84,-4.602 z m 16.46,111.297 c -1.94,1.847 -3.87,2.445 -6.13,2.445 h -109.4 c -2.9,0 -4.84,-1.828 -4.84,-4.598 V 363.531 c 0,-2.769 1.94,-4.613 4.84,-4.613 h 35.5 c 2.9,0 4.84,1.844 4.84,4.613 v 53.496 h 69.06 c 2.26,0 4.53,0.918 6.13,2.465 l 26.14,24.895 c 1.61,1.531 2.59,3.695 2.59,5.843 v 90.688 c 0,2.164 -0.98,4.312 -2.59,5.848 l -26.14,24.91" /><path
         id="path22"
         style="fill:#193051;fill-opacity:1;fill-rule:nonzero;stroke:none"
         d="m 2164.66,574.121 h -121.34 c -2.92,0 -4.84,-1.828 -4.84,-4.598 V 363.531 c 0,-2.769 1.92,-4.613 4.84,-4.613 h 121.34 c 2.9,0 4.83,1.844 4.83,4.613 v 29.524 c 0,2.761 -1.93,4.597 -4.83,4.597 h -81.01 v 49.496 h 56.15 c 2.91,0 4.85,1.852 4.85,4.618 v 29.523 c 0,2.766 -1.94,4.602 -4.85,4.602 h -56.15 v 49.496 h 81.01 c 2.9,0 4.83,1.851 4.83,4.613 v 29.523 c 0,2.77 -1.93,4.598 -4.83,4.598" /><path
         id="path24"
         style="fill:#193051;fill-opacity:1;fill-rule:nonzero;stroke:none"
         d="m 2376.38,574.121 h -121.34 c -2.9,0 -4.84,-1.828 -4.84,-4.598 V 363.531 c 0,-2.769 1.94,-4.613 4.84,-4.613 h 121.34 c 2.91,0 4.83,1.844 4.83,4.613 v 29.524 c 0,2.761 -1.92,4.597 -4.83,4.597 h -81 v 49.496 h 56.14 c 2.92,0 4.85,1.852 4.85,4.618 v 29.523 c 0,2.766 -1.93,4.602 -4.85,4.602 h -56.14 v 49.496 h 81 c 2.91,0 4.83,1.851 4.83,4.613 v 29.523 c 0,2.77 -1.92,4.598 -4.83,4.598" /><path
         id="path26"
         style="fill:#193051;fill-opacity:1;fill-rule:nonzero;stroke:none"
         d="m 2570.37,402.266 -4.83,-4.614 h -58.42 v 137.735 h 58.42 l 4.83,-4.602 z m 16.47,169.41 c -1.95,1.847 -3.88,2.445 -6.14,2.445 h -113.92 c -2.9,0 -4.85,-1.828 -4.85,-4.598 V 363.531 c 0,-2.769 1.95,-4.613 4.85,-4.613 h 113.92 c 2.26,0 4.51,0.934 6.14,2.465 l 26.13,24.906 c 1.61,1.535 2.58,3.684 2.58,5.832 v 148.797 c 0,2.164 -0.97,4.312 -2.58,5.848 l -26.13,24.91" /><path
         id="path28"
         style="fill:#193051;fill-opacity:1;fill-rule:nonzero;stroke:none"
         d="m 2746.6,535.387 h 46.47 l 17.11,-16.293 c 2.25,-2.149 4.83,-2.149 7.09,0 l 22.59,21.523 c 2.27,2.153 2.27,4.613 0,6.766 l -25.49,24.293 c -1.62,1.535 -3.86,2.445 -6.14,2.445 h -76.79 c -2.27,0 -4.53,-0.91 -6.14,-2.445 l -26.14,-24.91 c -1.93,-1.848 -2.58,-3.684 -2.58,-5.848 v -61.797 c 0,-2.445 1.29,-4.297 3.88,-5.215 l 95.53,-33.203 v -38.437 l -4.86,-4.614 h -50.99 l -17.09,16.293 c -2.27,2.164 -4.84,2.164 -7.11,0 l -22.59,-21.507 c -2.26,-2.168 -2.26,-4.614 0,-6.766 l 25.49,-24.289 c 1.94,-1.852 3.87,-2.465 6.13,-2.465 h 81.34 c 2.25,0 4.51,0.934 6.12,2.465 l 26.13,24.906 c 1.64,1.535 2.59,3.684 2.59,5.832 v 70.41 c 0,2.465 -1.29,4.297 -3.86,5.231 l -95.52,33.203 v 29.82 l 4.83,4.602" /><path
         id="path30"
         style="fill:#193051;fill-opacity:1;fill-rule:nonzero;stroke:none"
         d="m 3018.68,481.289 44.22,87.301 c 1.61,3.383 0,5.531 -3.56,5.531 h -38.39 c -2.59,0 -4.52,-1.215 -5.49,-3.379 l -52.61,-108.527 v 107.308 c 0,2.77 -1.94,4.598 -4.84,4.598 h -35.49 c -2.92,0 -4.84,-1.828 -4.84,-4.598 V 363.531 c 0,-2.769 1.92,-4.613 4.84,-4.613 h 30.33 c 2.59,0 4.51,1.23 5.49,3.379 l 33.88,67.644 27.75,-67.328 c 0.98,-2.465 3.23,-3.695 5.82,-3.695 h 34.84 c 3.55,0 5.17,1.844 3.88,5.23 l -45.83,117.141" /><path
         id="path32"
         style="fill:#193051;fill-opacity:1;fill-rule:nonzero;stroke:none"
         d="m 3192.99,442.852 21.3,92.535 20,-92.535 z m 58.74,127.293 c -0.65,2.761 -2.59,3.976 -5.49,3.976 h -63.58 c -2.9,0 -4.85,-1.531 -5.49,-3.976 l -48.09,-205.997 c -0.62,-3.386 0.98,-5.23 4.21,-5.23 h 35.82 c 2.9,0 4.85,1.547 5.49,4 l 9.35,41.199 h 58.73 l 9.05,-41.199 c 0.64,-2.77 2.57,-4 5.49,-4 h 35.49 c 3.23,0 5.16,1.547 4.52,4.91 l -45.5,206.317" /><path
         id="path34"
         style="fill:#193051;fill-opacity:1;fill-rule:nonzero;stroke:none"
         d="m 3487.98,574.121 h -139.41 c -2.91,0 -4.83,-1.828 -4.83,-4.598 V 540 c 0,-2.762 1.92,-4.613 4.83,-4.613 h 47.11 V 363.531 c 0,-2.769 1.95,-4.613 4.85,-4.613 h 35.51 c 2.9,0 4.83,1.844 4.83,4.613 v 171.856 h 47.11 c 2.9,0 4.84,1.851 4.84,4.613 v 29.523 c 0,2.77 -1.94,4.598 -4.84,4.598" /><path
         id="path36"
         style="fill:#193051;fill-opacity:1;fill-rule:nonzero;stroke:none"
         d="m 3613.87,574.121 h -35.49 c -2.91,0 -4.84,-1.828 -4.84,-4.598 V 363.531 c 0,-2.769 1.93,-4.613 4.84,-4.613 h 35.49 c 2.9,0 4.84,1.844 4.84,4.613 v 205.992 c 0,2.77 -1.94,4.598 -4.84,4.598" /><path
         id="path38"
         style="fill:#193051;fill-opacity:1;fill-rule:nonzero;stroke:none"
         d="m 3848.18,574.121 h -35.5 c -2.9,0 -4.84,-1.828 -4.84,-4.598 v -92.23 l -57.77,93.762 c -1.29,2.156 -3.21,3.066 -5.8,3.066 h -40.01 c -2.92,0 -4.85,-1.828 -4.85,-4.598 V 363.531 c 0,-2.769 1.93,-4.613 4.85,-4.613 h 35.49 c 2.9,0 4.84,1.844 4.84,4.613 v 137.434 l 63.25,-101.149 v -36.285 c 0,-2.769 1.94,-4.613 4.84,-4.613 h 35.5 c 2.9,0 4.85,1.844 4.85,4.613 v 205.992 c 0,2.77 -1.95,4.598 -4.85,4.598" /><path
         id="path40"
         style="fill:#193051;fill-opacity:1;fill-rule:nonzero;stroke:none"
         d="m 4069.38,485.891 h -64.87 c -2.9,0 -4.84,-1.836 -4.84,-4.602 v -29.523 c 0,-2.766 1.94,-4.618 4.84,-4.618 h 24.52 v -44.882 l -4.84,-4.614 h -55.83 l -4.83,4.614 v 128.519 l 4.83,4.602 h 55.83 l 17.11,-16.293 c 2.26,-2.149 4.83,-2.149 7.11,0 l 22.58,21.523 c 2.26,2.153 2.26,4.613 0,6.766 l -25.5,24.293 c -1.61,1.535 -3.87,2.445 -6.13,2.445 h -86.17 c -2.25,0 -4.51,-0.91 -6.13,-2.445 l -26.14,-24.91 c -1.93,-1.848 -2.57,-3.684 -2.57,-5.848 V 392.121 c 0,-2.148 0.97,-4.297 2.57,-5.832 l 26.14,-24.906 c 1.94,-1.852 3.88,-2.465 6.13,-2.465 h 86.17 c 2.26,0 4.52,0.934 6.13,2.465 l 26.14,24.906 c 1.62,1.535 2.59,3.684 2.59,5.832 v 89.168 c 0,2.766 -1.94,4.602 -4.84,4.602" /><path
         id="path42"
         style="fill:#ffffff;fill-opacity:1;fill-rule:nonzero;stroke:none"
         d="M 0,381.789 C 0,171.305 171.309,-0.00390625 381.738,-0.00390625 591.031,-0.00390625 762.223,170.34 763.531,379.52 V 932.391 H 0 V 381.789" /><path
         id="path44"
         style="fill:#193051;fill-opacity:1;fill-rule:nonzero;stroke:none"
         d="m 627.598,722.926 -0.231,0.172 c 3.922,-17.719 5.903,-36.227 5.852,-55.078 0,-11.36 -0.969,-22.309 -2.442,-33.332 L 491.262,774.367 c -26.907,27.653 -64.16,45.141 -105.555,46.391 -0.059,-0.117 -0.105,0 -0.848,0.058 -1.363,0 -1.875,0.059 -3.406,0.059 -84.262,0 -152.742,-68.539 -152.742,-152.625 0,-43.215 17.551,-83.125 49.348,-112.652 0.906,-0.973 0.906,-0.973 54.558,-54.508 38.727,-38.785 85.176,-85.117 89.321,-89.262 18.96,-18.398 20.328,-48.605 2.781,-68.594 -18.231,-20.718 -49.684,-22.711 -70.293,-4.484 -1.531,1.363 -1.531,1.363 -92.156,91.926 -26.29,26.176 -49.004,48.887 -52.696,52.582 -51.043,47.75 -80.398,115.094 -80.398,184.992 0,104.473 63.933,194.242 154.785,232.453 H 29.6992 V 381.848 c 0,-193.903 157.8438,-351.7542 351.7538,-351.7542 194.074,0 351.922,157.8512 351.922,351.7542 L 733.09,900.703 H 479.059 c 74.382,-31.34 130.703,-97.433 148.539,-177.777" /><path
         id="path46"
         style="fill:#e22224;fill-opacity:1;fill-rule:nonzero;stroke:none"
         d="m 381.738,129.117 c -120.324,0 -221.101,84.719 -246.203,197.543 v 0 c -3.859,17.656 -5.562,35.996 -5.562,54.961 0,11.184 1.023,22.317 2.386,33.219 L 271.98,275.211 c 26.797,-27.703 64.106,-45.254 105.497,-46.387 0.058,0.059 0.168,0.176 0.226,0.176 1.305,0 2.61,-0.398 4.035,-0.398 84.203,0 152.676,68.586 152.676,152.793 0,43.039 -17.434,83.07 -49.172,112.593 -1.07,0.852 -1.07,0.852 -54.617,54.45 -38.785,38.785 -85.227,85.117 -89.32,89.261 -18.961,18.344 -20.375,48.606 -2.719,68.586 18.109,20.668 49.621,22.66 70.18,4.492 1.531,-1.422 1.531,-1.422 92.207,-91.933 26.234,-26.227 49.004,-48.946 52.578,-52.578 51.16,-47.743 80.398,-115.149 80.398,-184.871 0,-139.055 -113.105,-252.278 -252.211,-252.278" /></g></g></svg>