<?xml version="1.0" encoding="UTF-8" standalone="no"?>
<svg
   xmlns:dc="http://purl.org/dc/elements/1.1/"
   xmlns:cc="http://creativecommons.org/ns#"
   xmlns:rdf="http://www.w3.org/1999/02/22-rdf-syntax-ns#"
   xmlns:svg="http://www.w3.org/2000/svg"
   xmlns="http://www.w3.org/2000/svg"
   viewBox="0 0 365.07999 264.58667"
   height="264.58667"
   width="365.07999"
   xml:space="preserve"
   id="svg2"
   version="1.1"><metadata
     id="metadata8"><rdf:RDF><cc:Work
         rdf:about=""><dc:format>image/svg+xml</dc:format><dc:type
           rdf:resource="http://purl.org/dc/dcmitype/StillImage" /></cc:Work></rdf:RDF></metadata><defs
     id="defs6" /><g
     transform="matrix(1.3333333,0,0,-1.3333333,0,264.58667)"
     id="g10"><g
       transform="scale(0.1)"
       id="g12"><path
         id="path14"
         style="fill:#e22224;fill-opacity:1;fill-rule:nonzero;stroke:none"
         d="M 135.422,197.18 H 103.66 c -3.8866,0 -6.5975,-2.649 -6.5975,-6.41 V 42.0586 L 94.0898,39.2305 H 47.957 l -2.9726,2.8281 V 190.77 c 0,3.71 -2.7735,6.41 -6.5977,6.41 H 6.60938 c -3.83204,0 -6.60547375,-2.7 -6.60547375,-6.41 V 31.9883 c 0,-2.5274 1.09765375,-5.0195 3.01562375,-6.8594 L 26.4141,2.83984 C 28.4336,0.921875 30.6797,0 33.4688,0 h 75.0972 c 2.579,0 5.149,1.03906 7.063,2.83984 l 23.387,22.28906 c 1.914,1.8203 3.011,4.3203 3.011,6.8594 V 190.77 c 0,3.71 -2.773,6.41 -6.605,6.41" /><path
         id="path16"
         style="fill:#e22224;fill-opacity:1;fill-rule:nonzero;stroke:none"
         d="m 338.977,101.852 -83.981,29.179 v 24.098 l 2.977,2.82 h 39.765 l 14.66,-13.961 c 2.891,-2.769 6.614,-2.718 9.473,0 l 20.227,19.262 c 1.851,1.762 2.226,3.52 2.226,4.699 0,1.153 -0.394,2.93 -2.226,4.653 l -22.817,21.75 c -1.89,1.796 -4.461,2.828 -7.058,2.828 h -68.739 c -2.597,0 -5.175,-1.051 -7.046,-2.828 l -23.407,-22.293 c -2.058,-1.969 -3.015,-4.168 -3.015,-6.887 v -55.301 c 0,-3.199 1.816,-5.68 5.007,-6.82 L 298.988,73.8594 V 42.0586 l -2.98,-2.8281 h -43.824 l -14.633,13.9414 c -2.938,2.8086 -6.578,2.8281 -9.5,0 l -20.231,-19.25 c -1.828,-1.75 -2.203,-3.5117 -2.203,-4.6602 0,-1.1719 0.375,-2.9336 2.211,-4.6836 L 230.641,2.83984 C 232.668,0.921875 234.91,0 237.703,0 H 310.5 c 2.582,0 5.152,1.03906 7.043,2.83984 l 23.383,22.28906 c 1.929,1.8203 3.027,4.3203 3.027,6.8594 v 63.0234 c 0,3.1875 -1.801,5.6683 -4.976,6.8403" /><path
         id="path18"
         style="fill:#193051;fill-opacity:1;fill-rule:nonzero;stroke:none"
         d="m 557.211,160.23 h 41.594 l 15.312,-14.589 c 2.02,-1.922 4.332,-1.922 6.348,0 l 20.223,19.269 c 2.019,1.918 2.019,4.129 0,6.051 l -22.821,21.738 c -1.449,1.371 -3.465,2.199 -5.488,2.199 h -68.75 c -2.016,0 -4.031,-0.828 -5.488,-2.199 L 514.746,170.41 c -1.723,-1.648 -2.301,-3.301 -2.301,-5.23 v -55.309 c 0,-2.199 1.157,-3.851 3.457,-4.672 l 85.5,-29.7185 V 41.0781 l -4.328,-4.1289 h -45.64 l -15.309,14.5821 c -2.02,1.9375 -4.332,1.9375 -6.352,0 l -20.218,-19.25 c -2.02,-1.9415 -2.02,-4.1329 0,-6.0625 L 532.371,4.48047 c 1.734,-1.65234 3.473,-2.19922 5.488,-2.19922 h 72.789 c 2.016,0 4.047,0.82813 5.489,2.19922 l 23.398,22.30083 c 1.434,1.3671 2.313,3.289 2.313,5.207 v 63.0234 c 0,2.2071 -1.16,3.8477 -3.473,4.6875 l -85.504,29.7228 v 26.687 l 4.34,4.121" /><path
         id="path20"
         style="fill:#193051;fill-opacity:1;fill-rule:nonzero;stroke:none"
         d="M 803.332,93.0898 799,88.9609 H 750.77 V 160.23 H 799 l 4.332,-4.121 z m 14.731,99.6092 c -1.735,1.66 -3.469,2.199 -5.489,2.199 H 714.66 c -2.597,0 -4.336,-1.648 -4.336,-4.117 V 6.41016 c 0,-2.48047 1.739,-4.12891 4.336,-4.12891 h 31.778 c 2.593,0 4.332,1.64844 4.332,4.12891 V 54.2891 h 61.804 c 2.02,0 4.047,0.8203 5.489,2.2109 l 23.398,22.2813 c 1.441,1.3671 2.316,3.2968 2.316,5.2304 V 165.18 c 0,1.929 -0.875,3.859 -2.316,5.23 l -23.398,22.289" /><path
         id="path22"
         style="fill:#193051;fill-opacity:1;fill-rule:nonzero;stroke:none"
         d="M 1028.96,194.898 H 920.355 c -2.609,0 -4.332,-1.648 -4.332,-4.117 V 6.41016 c 0,-2.48047 1.723,-4.12891 4.332,-4.12891 h 108.605 c 2.59,0 4.33,1.64844 4.33,4.12891 V 32.8281 c 0,2.4805 -1.74,4.1211 -4.33,4.1211 H 956.453 V 81.25 h 50.267 c 2.59,0 4.33,1.6602 4.33,4.1289 v 26.4221 c 0,2.48 -1.74,4.121 -4.33,4.121 h -50.267 v 44.308 h 72.507 c 2.59,0 4.33,1.649 4.33,4.129 v 26.422 c 0,2.469 -1.74,4.117 -4.33,4.117" /><path
         id="path24"
         style="fill:#193051;fill-opacity:1;fill-rule:nonzero;stroke:none"
         d="m 1218.45,194.898 h -108.59 c -2.6,0 -4.34,-1.648 -4.34,-4.117 V 6.41016 c 0,-2.48047 1.74,-4.12891 4.34,-4.12891 h 108.59 c 2.62,0 4.34,1.64844 4.34,4.12891 V 32.8281 c 0,2.4805 -1.72,4.1211 -4.34,4.1211 h -72.49 V 81.25 h 50.26 c 2.61,0 4.33,1.6602 4.33,4.1289 v 26.4221 c 0,2.48 -1.72,4.121 -4.33,4.121 h -50.26 v 44.308 h 72.49 c 2.62,0 4.34,1.649 4.34,4.129 v 26.422 c 0,2.469 -1.72,4.117 -4.34,4.117" /><path
         id="path26"
         style="fill:#193051;fill-opacity:1;fill-rule:nonzero;stroke:none"
         d="m 1392.09,41.0781 -4.33,-4.1289 h -52.28 V 160.23 h 52.28 l 4.33,-4.121 z m 14.73,151.6209 c -1.73,1.66 -3.47,2.199 -5.49,2.199 h -101.96 c -2.6,0 -4.33,-1.648 -4.33,-4.117 V 6.41016 c 0,-2.48047 1.73,-4.12891 4.33,-4.12891 h 101.96 c 2.02,0 4.04,0.82813 5.49,2.19922 l 23.4,22.30083 c 1.44,1.3671 2.3,3.289 2.3,5.207 V 165.18 c 0,1.929 -0.86,3.859 -2.3,5.23 l -23.4,22.289" /><path
         id="path28"
         style="fill:#193051;fill-opacity:1;fill-rule:nonzero;stroke:none"
         d="m 1549.83,160.23 h 41.58 l 15.31,-14.589 c 2.02,-1.922 4.34,-1.922 6.35,0 l 20.22,19.269 c 2.03,1.918 2.03,4.129 0,6.051 l -22.82,21.738 c -1.43,1.371 -3.46,2.199 -5.49,2.199 h -68.73 c -2.03,0 -4.05,-0.828 -5.49,-2.199 l -23.39,-22.289 c -1.74,-1.648 -2.32,-3.301 -2.32,-5.23 v -55.309 c 0,-2.199 1.15,-3.851 3.47,-4.672 l 85.51,-29.7185 V 41.0781 l -4.35,-4.1289 h -45.63 l -15.31,14.5821 c -2.03,1.9375 -4.33,1.9375 -6.36,0 l -20.22,-19.25 c -2.02,-1.9415 -2.02,-4.1329 0,-6.0625 l 22.81,-21.73833 c 1.74,-1.65234 3.48,-2.19922 5.49,-2.19922 h 72.8 c 2.03,0 4.04,0.82813 5.48,2.19922 l 23.4,22.30083 c 1.45,1.3671 2.32,3.289 2.32,5.207 v 63.0234 c 0,2.2071 -1.17,3.8477 -3.47,4.6875 l -85.5,29.7228 v 26.687 l 4.34,4.121" /><path
         id="path30"
         style="fill:#193051;fill-opacity:1;fill-rule:nonzero;stroke:none"
         d="m 1793.34,111.801 39.58,78.14 c 1.45,3.028 0,4.957 -3.18,4.957 h -34.37 c -2.31,0 -4.05,-1.089 -4.91,-3.027 l -47.09,-97.1405 v 96.0505 c 0,2.469 -1.73,4.117 -4.32,4.117 h -31.77 c -2.61,0 -4.34,-1.648 -4.34,-4.117 V 6.41016 c 0,-2.48047 1.73,-4.12891 4.34,-4.12891 h 27.15 c 2.31,0 4.03,1.09766 4.91,3.02734 l 30.32,60.54301 24.84,-60.27347 c 0.87,-2.19922 2.89,-3.29688 5.21,-3.29688 h 31.18 c 3.17,0 4.63,1.64844 3.48,4.67969 L 1793.34,111.801" /><path
         id="path32"
         style="fill:#193051;fill-opacity:1;fill-rule:nonzero;stroke:none"
         d="m 1949.36,77.3984 19.06,82.8316 17.91,-82.8316 z m 47.66,117.4996 h -56.91 c -2.6,0 -4.33,-1.378 -4.91,-3.57 L 1892.16,6.96094 c -0.57,-3.03125 0.88,-4.67969 3.77,-4.67969 h 32.06 c 2.6,0 4.33,1.37891 4.91,3.57813 l 8.37,36.87112 h 52.56 l 8.11,-36.87112 c 0.57,-2.48047 2.29,-3.57813 4.9,-3.57813 h 31.77 c 2.89,0 4.62,1.37891 4.05,4.39844 L 2001.94,191.328 c -0.59,2.481 -2.32,3.57 -4.92,3.57" /><path
         id="path34"
         style="fill:#193051;fill-opacity:1;fill-rule:nonzero;stroke:none"
         d="m 2213.39,194.898 h -124.77 c -2.61,0 -4.34,-1.648 -4.34,-4.117 v -26.422 c 0,-2.48 1.73,-4.129 4.34,-4.129 h 42.16 V 6.41016 c 0,-2.48047 1.73,-4.12891 4.33,-4.12891 h 31.78 c 2.59,0 4.33,1.64844 4.33,4.12891 V 160.23 h 42.17 c 2.6,0 4.33,1.649 4.33,4.129 v 26.422 c 0,2.469 -1.73,4.117 -4.33,4.117" /><path
         id="path36"
         style="fill:#193051;fill-opacity:1;fill-rule:nonzero;stroke:none"
         d="m 2326.07,194.898 h -31.77 c -2.61,0 -4.34,-1.648 -4.34,-4.117 V 6.41016 c 0,-2.48047 1.73,-4.12891 4.34,-4.12891 h 31.77 c 2.59,0 4.32,1.64844 4.32,4.12891 V 190.781 c 0,2.469 -1.73,4.117 -4.32,4.117" /><path
         id="path38"
         style="fill:#193051;fill-opacity:1;fill-rule:nonzero;stroke:none"
         d="m 2535.78,194.898 h -31.77 c -2.6,0 -4.34,-1.648 -4.34,-4.117 V 108.23 l -51.7,83.918 c -1.15,1.922 -2.88,2.75 -5.19,2.75 h -35.81 c -2.61,0 -4.34,-1.648 -4.34,-4.117 V 6.41016 c 0,-2.48047 1.73,-4.12891 4.34,-4.12891 h 31.76 c 2.59,0 4.33,1.64844 4.33,4.12891 V 129.422 l 56.61,-90.5431 V 6.41016 c 0,-2.48047 1.74,-4.12891 4.34,-4.12891 h 31.77 c 2.6,0 4.34,1.64844 4.34,4.12891 V 190.781 c 0,2.469 -1.74,4.117 -4.34,4.117" /><path
         id="path40"
         style="fill:#193051;fill-opacity:1;fill-rule:nonzero;stroke:none"
         d="m 2733.76,115.922 h -58.05 c -2.6,0 -4.34,-1.641 -4.34,-4.121 V 85.3789 c 0,-2.4687 1.74,-4.1289 4.34,-4.1289 h 21.94 V 41.0781 l -4.33,-4.1289 h -49.97 l -4.33,4.1289 V 156.109 l 4.33,4.121 h 49.97 l 15.31,-14.589 c 2.03,-1.922 4.33,-1.922 6.36,0 l 20.21,19.269 c 2.03,1.918 2.03,4.129 0,6.051 l -22.82,21.738 c -1.44,1.371 -3.45,2.199 -5.48,2.199 h -77.12 c -2.02,0 -4.05,-0.828 -5.49,-2.199 l -23.4,-22.289 c -1.73,-1.648 -2.3,-3.301 -2.3,-5.23 V 31.9883 c 0,-1.918 0.86,-3.8399 2.3,-5.207 l 23.4,-22.30083 c 1.73,-1.65234 3.47,-2.19922 5.49,-2.19922 h 77.12 c 2.03,0 4.04,0.82813 5.48,2.19922 l 23.39,22.30083 c 1.46,1.3671 2.32,3.289 2.32,5.207 v 79.8127 c 0,2.48 -1.73,4.121 -4.33,4.121" /><path
         id="path42"
         style="fill:#ffffff;fill-opacity:1;fill-rule:nonzero;stroke:none"
         d="m 746.785,1093.25 c 0,-340.66 277.265,-617.93 617.845,-617.93 338.73,0 615.8,275.7 617.92,614.25 v 894.82 H 746.785 v -891.14" /><path
         id="path44"
         style="fill:#193051;fill-opacity:1;fill-rule:nonzero;stroke:none"
         d="m 1762.54,1645.38 -0.36,0.27 c 6.34,-28.67 9.55,-58.63 9.46,-89.14 0,-18.38 -1.56,-36.11 -3.94,-53.94 l -225.81,226.07 c -43.55,44.75 -103.84,73.06 -170.84,75.08 -0.09,-0.19 -0.17,0 -1.37,0.09 -2.21,0 -3.04,0.1 -5.51,0.1 -136.38,0 -247.21,-110.93 -247.21,-247.03 0,-69.93 28.39,-134.54 79.86,-182.32 1.47,-1.58 1.47,-1.58 88.31,-88.22 62.67,-62.77 137.85,-137.76 144.56,-144.47 30.68,-29.78 32.9,-78.66 4.5,-111.02 -29.5,-33.537 -80.41,-36.756 -113.77,-7.25 -2.48,2.2 -2.48,2.2 -149.15,148.78 -42.55,42.36 -79.31,79.12 -85.29,85.09 -82.61,77.29 -130.125,186.28 -130.125,299.41 0,169.09 103.475,314.39 250.515,376.23 H 794.855 v -839.76 c 0,-313.838 255.475,-569.311 569.315,-569.311 314.1,0 569.58,255.473 569.58,569.311 l -0.47,839.76 h -411.14 c 120.38,-50.73 211.54,-157.7 240.4,-287.73" /><path
         id="path46"
         style="fill:#e22224;fill-opacity:1;fill-rule:nonzero;stroke:none"
         d="m 1364.63,684.301 c -194.74,0 -357.86,137.109 -398.482,319.719 v 0 c -6.242,28.58 -9.003,58.26 -9.003,88.96 0,18.1 1.656,36.11 3.859,53.76 L 1186.98,920.762 c 43.38,-44.852 103.75,-73.242 170.75,-75.09 0.09,0.098 0.27,0.277 0.37,0.277 2.11,0 4.22,-0.64 6.53,-0.64 136.28,0 247.1,111.011 247.1,247.301 0,69.66 -28.21,134.45 -79.58,182.24 -1.74,1.37 -1.74,1.37 -88.4,88.12 -62.77,62.77 -137.94,137.76 -144.56,144.48 -30.69,29.67 -32.99,78.66 -4.41,111 29.31,33.45 80.32,36.67 113.58,7.26 2.49,-2.3 2.49,-2.3 149.25,-148.78 42.45,-42.45 79.31,-79.22 85.1,-85.11 82.8,-77.27 130.12,-186.36 130.12,-299.21 0,-225.059 -183.06,-408.309 -408.2,-408.309" /></g></g></svg>